<svg width="171" height="41" viewBox="0 0 171 41" fill="none" xmlns="http://www.w3.org/2000/svg">
<path fill-rule="evenodd" clip-rule="evenodd" d="M0 4V36H21V32.343H3.98029V21.5544H17.6601V17.8972H3.98029V7.65726H20.4051V4H0Z" fill="#006278"/>
<path fill-rule="evenodd" clip-rule="evenodd" d="M59 20C59 16.8 58.341 13.9965 57.0232 11.5888C55.7048 9.18158 53.8138 7.31431 51.3488 5.98864C48.8835 4.66297 45.9766 4 42.6277 4H33V36H42.6277C45.9766 36 48.8835 35.337 51.3488 34.0114C53.8138 32.6857 55.7048 30.8114 57.0232 28.3886C58.341 25.9656 59 23.1701 59 20ZM54.8605 20C54.8605 23.7792 53.7906 26.7813 51.6512 29.0056C49.5116 31.2308 46.5035 32.3428 42.6277 32.3428H37.0464V7.65722H42.6277C46.5348 7.65722 49.55 8.76218 51.6745 10.9715C53.798 13.1814 54.8605 16.1907 54.8605 20Z" fill="#006278"/>
<path fill-rule="evenodd" clip-rule="evenodd" d="M70 36H74V4H70V36Z" fill="#006278"/>
<path fill-rule="evenodd" clip-rule="evenodd" d="M114 36L101.871 4H97.1745L85 36H89.1037L92.478 27.3601H106.385L109.759 36H114ZM105.2 23.7486H93.6634L99.4086 8.34281L105.2 23.7486Z" fill="#006278"/>
<path fill-rule="evenodd" clip-rule="evenodd" d="M167 36H171V4H167V36Z" fill="#006278"/>
<mask id="mask0_0_2085" style="mask-type:luminance" maskUnits="userSpaceOnUse" x="118" y="0" width="40" height="41">
<path fill-rule="evenodd" clip-rule="evenodd" d="M118 0H158V41H118V0Z" fill="white"/>
</mask>
<g mask="url(#mask0_0_2085)">
<path fill-rule="evenodd" clip-rule="evenodd" d="M157.853 38.2376C154.514 37.033 151.457 35.174 148.861 32.8063C144.391 28.7252 142.946 24.5917 140.905 20.4065C138.968 16.4394 136.759 13.3758 133.389 10.4991C130.897 8.36992 127.725 7.73661 124.595 8.7544C121.465 9.76195 119.277 12.1297 118.523 15.3073C118.189 16.7614 118 18.2777 118 19.8355C118 31.5704 128.196 40.7302 139.984 39.5776C142.213 39.3592 144.391 38.778 146.422 37.8429C137.251 33.4191 130.185 24.6748 128.552 14.9957C128.469 24.1453 132.279 31.5496 138.623 36.69C128.992 37.033 121.004 29.3898 121.004 19.8355C121.004 18.4955 121.162 17.1976 121.455 15.9515C121.957 13.8223 123.433 12.2437 125.527 11.5689C127.621 10.8938 129.746 11.3093 131.41 12.732C139.701 19.8042 138.11 26.6893 146.338 34.5407C147.102 35.2573 147.898 35.9424 148.725 36.5865C151.132 38.435 153.823 39.9411 156.733 41.0001L157.853 38.2376ZM152.965 33.0036C156.095 29.4936 158 24.8826 158 19.8355C158 8.87895 149.05 -0.000198364 138.005 -0.000198364C134.237 -0.000198364 130.709 1.02783 127.694 2.82453C125.904 3.89437 124.302 5.23379 122.931 6.79162C124.656 5.8179 129.879 2.93516 138.005 2.96985C147.512 3.01023 155.006 10.5201 155.006 19.8355C155.006 24.1868 153.341 28.1433 150.62 31.1344L152.965 33.0036Z" fill="#006278"/>
</g>
<path fill-rule="evenodd" clip-rule="evenodd" d="M145.786 20.3787C144.495 20.3787 143.448 19.3407 143.448 18.0598C143.448 16.779 144.495 15.7402 145.786 15.7402C147.077 15.7402 148.124 16.779 148.124 18.0598C148.124 19.3407 147.077 20.3787 145.786 20.3787Z" fill="#006278"/>
<path fill-rule="evenodd" clip-rule="evenodd" d="M139.607 11.9403C138.72 11.9403 138 11.2262 138 10.3458C138 9.46506 138.72 8.75127 139.607 8.75127C140.495 8.75127 141.215 9.46506 141.215 10.3458C141.215 11.2262 140.495 11.9403 139.607 11.9403Z" fill="#006278"/>
<path fill-rule="evenodd" clip-rule="evenodd" d="M148.903 13.4381C147.182 13.4381 145.786 12.0534 145.786 10.3454C145.786 8.63803 147.182 7.25339 148.903 7.25339C150.625 7.25339 152.02 8.63803 152.02 10.3454C152.02 12.0534 150.625 13.4381 148.903 13.4381Z" fill="#006278"/>
</svg>
